<svg id='Age_24' width='24' height='24' viewBox='0 0 24 24' xmlns='http://www.w3.org/2000/svg' xmlns:xlink='http://www.w3.org/1999/xlink'><rect width='24' height='24' stroke='none' fill='#000000' opacity='0'/>


<g transform="matrix(0.31 0 0 0.31 12 12)" >
<path style="stroke: none; stroke-width: 1; stroke-dasharray: none; stroke-linecap: butt; stroke-dashoffset: 0; stroke-linejoin: miter; stroke-miterlimit: 4; fill: rgb(0,0,0); fill-rule: nonzero; opacity: 1;" transform=" translate(-40, -37.5)" d="M 24 5 C 22.906937 5 22 5.9069372 22 7 L 22 10 L 15 10 C 12.250484 10 10 12.250484 10 15 L 10 65 C 10 67.749516 12.250484 70 15 70 L 65 70 C 67.749516 70 70 67.749516 70 65 L 70 15 C 70 12.250484 67.749516 10 65 10 L 58 10 L 58 7 C 58 5.9069372 57.093063 5 56 5 L 54 5 C 52.906937 5 52 5.9069372 52 7 L 52 10 L 28 10 L 28 7 C 28 5.9069372 27.093063 5 26 5 L 24 5 z M 24 7 L 26 7 L 26 15 L 24 15 L 24 7 z M 54 7 L 56 7 L 56 15 L 54 15 L 54 7 z M 15 12 L 22 12 L 22 15 C 22 16.093063 22.906937 17 24 17 L 26 17 C 27.093063 17 28 16.093063 28 15 L 28 12 L 52 12 L 52 15 C 52 16.093063 52.906937 17 54 17 L 56 17 C 57.093063 17 58 16.093063 58 15 L 58 12 L 65 12 C 66.668484 12 68 13.331516 68 15 L 68 22 L 12 22 L 12 15 C 12 13.331516 13.331516 12 15 12 z M 12 24 L 68 24 L 68 65 C 68 66.668484 66.668484 68 65 68 L 15 68 C 13.331516 68 12 66.668484 12 65 L 12 24 z M 40 32.5 L 32 40.5 L 48 40.5 L 40 32.5 z M 32 44.5 L 40 52.5 L 48 44.5 L 32 44.5 z M 16 62 C 15.447715250169207 62 15 62.4477152501692 15 63 C 15 63.5522847498308 15.447715250169207 64 16 64 C 16.552284749830793 64 17 63.5522847498308 17 63 C 17 62.4477152501692 16.552284749830793 62 16 62 z M 20 62 C 19.447715250169207 62 19 62.4477152501692 19 63 C 19 63.5522847498308 19.447715250169207 64 20 64 C 20.552284749830793 64 21 63.5522847498308 21 63 C 21 62.4477152501692 20.552284749830793 62 20 62 z M 24 62 C 23.447715250169207 62 23 62.4477152501692 23 63 C 23 63.5522847498308 23.447715250169207 64 24 64 C 24.552284749830793 64 25 63.5522847498308 25 63 C 25 62.4477152501692 24.552284749830793 62 24 62 z M 28 62 C 27.447715250169207 62 27 62.4477152501692 27 63 C 27 63.5522847498308 27.447715250169207 64 28 64 C 28.552284749830793 64 29 63.5522847498308 29 63 C 29 62.4477152501692 28.552284749830793 62 28 62 z M 32 62 C 31.447715250169207 62 31 62.4477152501692 31 63 C 31 63.5522847498308 31.447715250169207 64 32 64 C 32.5522847498308 64 33 63.5522847498308 33 63 C 33 62.4477152501692 32.5522847498308 62 32 62 z M 36 62 C 35.4477152501692 62 35 62.4477152501692 35 63 C 35 63.5522847498308 35.4477152501692 64 36 64 C 36.5522847498308 64 37 63.5522847498308 37 63 C 37 62.4477152501692 36.5522847498308 62 36 62 z M 40 62 C 39.4477152501692 62 39 62.4477152501692 39 63 C 39 63.5522847498308 39.4477152501692 64 40 64 C 40.5522847498308 64 41 63.5522847498308 41 63 C 41 62.4477152501692 40.5522847498308 62 40 62 z M 44 62 C 43.4477152501692 62 43 62.4477152501692 43 63 C 43 63.5522847498308 43.4477152501692 64 44 64 C 44.5522847498308 64 45 63.5522847498308 45 63 C 45 62.4477152501692 44.5522847498308 62 44 62 z M 48 62 C 47.4477152501692 62 47 62.4477152501692 47 63 C 47 63.5522847498308 47.4477152501692 64 48 64 C 48.5522847498308 64 49 63.5522847498308 49 63 C 49 62.4477152501692 48.5522847498308 62 48 62 z M 52 62 C 51.4477152501692 62 51 62.4477152501692 51 63 C 51 63.5522847498308 51.4477152501692 64 52 64 C 52.5522847498308 64 53 63.5522847498308 53 63 C 53 62.4477152501692 52.5522847498308 62 52 62 z M 56 62 C 55.4477152501692 62 55 62.4477152501692 55 63 C 55 63.5522847498308 55.4477152501692 64 56 64 C 56.5522847498308 64 57 63.5522847498308 57 63 C 57 62.4477152501692 56.5522847498308 62 56 62 z M 60 62 C 59.4477152501692 62 59 62.4477152501692 59 63 C 59 63.5522847498308 59.4477152501692 64 60 64 C 60.5522847498308 64 61 63.5522847498308 61 63 C 61 62.4477152501692 60.5522847498308 62 60 62 z M 64 62 C 63.4477152501692 62 63 62.4477152501692 63 63 C 63 63.5522847498308 63.4477152501692 64 64 64 C 64.55228474983079 64 65 63.5522847498308 65 63 C 65 62.4477152501692 64.55228474983079 62 64 62 z" stroke-linecap="round" />
</g>
</svg>