<svg id='New_Property_24' width='24' height='24' viewBox='0 0 24 24' xmlns='http://www.w3.org/2000/svg' xmlns:xlink='http://www.w3.org/1999/xlink'><rect width='24' height='24' stroke='none' fill='#000000' opacity='0'/>


<g transform="matrix(0.33 0 0 0.33 12 12)" >
<path style="stroke: none; stroke-width: 1; stroke-dasharray: none; stroke-linecap: butt; stroke-dashoffset: 0; stroke-linejoin: miter; stroke-miterlimit: 4; fill: rgb(0,0,0); fill-rule: nonzero; opacity: 1;" transform=" translate(-40, -38)" d="M 15 11 C 12.250484 11 10 13.250484 10 16 L 10 65 L 70 65 L 70 64 L 70 16 C 70 13.250484 67.749516 11 65 11 L 15 11 z M 15 13 L 65 13 C 66.668484 13 68 14.331516 68 16 L 68 19 C 67.44771525016921 19 67 19.447715250169207 67 20 C 67 20.552284749830793 67.44771525016921 21 68 21 L 68 63 L 12 63 L 12 21 C 12.552284749830793 21 13 20.552284749830793 13 20 C 13 19.447715250169207 12.552284749830793 19 12 19 L 12 16 C 12 14.331516 13.331516 13 15 13 z M 16 19 C 15.447715250169207 19 15 19.447715250169207 15 20 C 15 20.552284749830793 15.447715250169207 21 16 21 C 16.552284749830793 21 17 20.552284749830793 17 20 C 17 19.447715250169207 16.552284749830793 19 16 19 z M 20 19 C 19.447715250169207 19 19 19.447715250169207 19 20 C 19 20.552284749830793 19.447715250169207 21 20 21 C 20.552284749830793 21 21 20.552284749830793 21 20 C 21 19.447715250169207 20.552284749830793 19 20 19 z M 24 19 C 23.447715250169207 19 23 19.447715250169207 23 20 C 23 20.552284749830793 23.447715250169207 21 24 21 C 24.552284749830793 21 25 20.552284749830793 25 20 C 25 19.447715250169207 24.552284749830793 19 24 19 z M 28 19 C 27.447715250169207 19 27 19.447715250169207 27 20 C 27 20.552284749830793 27.447715250169207 21 28 21 C 28.552284749830793 21 29 20.552284749830793 29 20 C 29 19.447715250169207 28.552284749830793 19 28 19 z M 32 19 C 31.447715250169207 19 31 19.447715250169207 31 20 C 31 20.552284749830793 31.447715250169207 21 32 21 C 32.5522847498308 21 33 20.552284749830793 33 20 C 33 19.447715250169207 32.5522847498308 19 32 19 z M 36 19 C 35.4477152501692 19 35 19.447715250169207 35 20 C 35 20.552284749830793 35.4477152501692 21 36 21 C 36.5522847498308 21 37 20.552284749830793 37 20 C 37 19.447715250169207 36.5522847498308 19 36 19 z M 40 19 C 39.4477152501692 19 39 19.447715250169207 39 20 C 39 20.552284749830793 39.4477152501692 21 40 21 C 40.5522847498308 21 41 20.552284749830793 41 20 C 41 19.447715250169207 40.5522847498308 19 40 19 z M 44 19 C 43.4477152501692 19 43 19.447715250169207 43 20 C 43 20.552284749830793 43.4477152501692 21 44 21 C 44.5522847498308 21 45 20.552284749830793 45 20 C 45 19.447715250169207 44.5522847498308 19 44 19 z M 48 19 C 47.4477152501692 19 47 19.447715250169207 47 20 C 47 20.552284749830793 47.4477152501692 21 48 21 C 48.5522847498308 21 49 20.552284749830793 49 20 C 49 19.447715250169207 48.5522847498308 19 48 19 z M 52 19 C 51.4477152501692 19 51 19.447715250169207 51 20 C 51 20.552284749830793 51.4477152501692 21 52 21 C 52.5522847498308 21 53 20.552284749830793 53 20 C 53 19.447715250169207 52.5522847498308 19 52 19 z M 56 19 C 55.4477152501692 19 55 19.447715250169207 55 20 C 55 20.552284749830793 55.4477152501692 21 56 21 C 56.5522847498308 21 57 20.552284749830793 57 20 C 57 19.447715250169207 56.5522847498308 19 56 19 z M 60 19 C 59.4477152501692 19 59 19.447715250169207 59 20 C 59 20.552284749830793 59.4477152501692 21 60 21 C 60.5522847498308 21 61 20.552284749830793 61 20 C 61 19.447715250169207 60.5522847498308 19 60 19 z M 64 19 C 63.4477152501692 19 63 19.447715250169207 63 20 C 63 20.552284749830793 63.4477152501692 21 64 21 C 64.55228474983079 21 65 20.552284749830793 65 20 C 65 19.447715250169207 64.55228474983079 19 64 19 z M 23 30 C 21.895430500338414 30 21 30.895430500338414 21 32 C 21 33.10456949966159 21.895430500338414 34 23 34 C 24.104569499661586 34 25 33.10456949966159 25 32 C 25 30.895430500338414 24.104569499661586 30 23 30 z M 28 31 L 28 33 L 57 33 L 57 31 L 28 31 z M 23 38 C 21.895430500338414 38 21 38.89543050033841 21 40 C 21 41.10456949966159 21.895430500338414 42 23 42 C 24.104569499661586 42 25 41.10456949966159 25 40 C 25 38.89543050033841 24.104569499661586 38 23 38 z M 28 39 L 28 41 L 57 41 L 57 39 L 28 39 z M 23 46 C 21.895430500338414 46 21 46.89543050033841 21 48 C 21 49.10456949966159 21.895430500338414 50 23 50 C 24.104569499661586 50 25 49.10456949966159 25 48 C 25 46.89543050033841 24.104569499661586 46 23 46 z M 28 47 L 28 49 L 57 49 L 57 47 L 28 47 z" stroke-linecap="round" />
</g>
</svg>