<svg id='Real_Estate_Sign_House_Sold_24' width='24' height='24' viewBox='0 0 24 24' xmlns='http://www.w3.org/2000/svg' xmlns:xlink='http://www.w3.org/1999/xlink'><rect width='24' height='24' stroke='none' fill='#000000' opacity='0'/>


<g transform="matrix(0.83 0 0 0.83 12 12)" >
<g style="" >
<g transform="matrix(1 0 0 1 10 7.82)" >
<path style="stroke: rgb(25,25,25); stroke-width: 1; stroke-dasharray: none; stroke-linecap: round; stroke-dashoffset: 0; stroke-linejoin: round; stroke-miterlimit: 4; fill: none; fill-rule: nonzero; opacity: 1;" transform=" translate(-22, -19.82)" d="M 20.5 16.823 C 21.2956 16.823 22.0587 17.1391 22.6213 17.7017 C 23.1839 18.2643 23.5 19.0273 23.5 19.823 C 23.5 20.6186 23.1839 21.3817 22.6213 21.9443 C 22.0587 22.5069 21.2956 22.823 20.5 22.823 L 20.5 16.823 Z" stroke-linecap="round" />
</g>
<g transform="matrix(1 0 0 1 0.04 7.82)" >
<path style="stroke: rgb(25,25,25); stroke-width: 1; stroke-dasharray: none; stroke-linecap: round; stroke-dashoffset: 0; stroke-linejoin: round; stroke-miterlimit: 4; fill: none; fill-rule: nonzero; opacity: 1;" transform=" translate(-12.04, -19.82)" d="M 13.545 21.323 C 13.545 21.7208 13.387 22.1024 13.1057 22.3837 C 12.8244 22.665 12.4428 22.823 12.045 22.823 C 11.6472 22.823 11.2656 22.665 10.9843 22.3837 C 10.703 22.1024 10.545 21.7208 10.545 21.323 L 10.545 18.323 C 10.545 17.9252 10.703 17.5436 10.9843 17.2623 C 11.2656 16.981 11.6472 16.823 12.045 16.823 C 12.4428 16.823 12.8244 16.981 13.1057 17.2623 C 13.387 17.5436 13.545 17.9252 13.545 18.323 L 13.545 21.323 Z" stroke-linecap="round" />
</g>
<g transform="matrix(1 0 0 1 5 7.82)" >
<path style="stroke: rgb(25,25,25); stroke-width: 1; stroke-dasharray: none; stroke-linecap: round; stroke-dashoffset: 0; stroke-linejoin: round; stroke-miterlimit: 4; fill: none; fill-rule: nonzero; opacity: 1;" transform=" translate(-17, -19.82)" d="M 15.5 16.823 L 15.5 21.823 C 15.5 22.0882 15.6054 22.3426 15.7929 22.5301 C 15.9804 22.7176 16.2348 22.823 16.5 22.823 L 18.5 22.823" stroke-linecap="round" />
</g>
<g transform="matrix(1 0 0 1 -5 7.82)" >
<path style="stroke: rgb(25,25,25); stroke-width: 1; stroke-dasharray: none; stroke-linecap: round; stroke-dashoffset: 0; stroke-linejoin: round; stroke-miterlimit: 4; fill: none; fill-rule: nonzero; opacity: 1;" transform=" translate(-7, -19.82)" d="M 8.5 16.823 L 6.8 16.823 C 6.51956 16.8215 6.24616 16.9107 6.02059 17.0773 C 5.79502 17.244 5.62938 17.4791 5.5484 17.7476 C 5.46741 18.0161 5.47542 18.3035 5.57123 18.5671 C 5.66703 18.8307 5.8455 19.0562 6.08 19.21 L 7.92 20.436 C 8.15449 20.5898 8.33296 20.8153 8.42877 21.0789 C 8.52457 21.3425 8.53258 21.6299 8.45159 21.8984 C 8.37061 22.1669 8.20497 22.402 7.9794 22.5687 C 7.75384 22.7353 7.48043 22.8245 7.2 22.823 L 5.5 22.823" stroke-linecap="round" />
</g>
<g transform="matrix(1 0 0 1 0 -3.75)" >
<path style="stroke: none; stroke-width: 1; stroke-dasharray: none; stroke-linecap: butt; stroke-dashoffset: 0; stroke-linejoin: miter; stroke-miterlimit: 4; fill: rgb(255,249,191); fill-rule: nonzero; opacity: 1;" transform=" translate(-12, -8.25)" d="M 12.674 1.439 C 12.4898 1.27092 12.2494 1.17773 12 1.17773 C 11.7506 1.17773 11.5102 1.27092 11.326 1.439 L 3.5 8.582 L 3.5 15.323 L 20.5 15.323 L 20.5 8.587 L 12.674 1.439 Z" stroke-linecap="round" />
</g>
<g transform="matrix(1 0 0 1 0 -5.58)" >
<path style="stroke: none; stroke-width: 1; stroke-dasharray: none; stroke-linecap: butt; stroke-dashoffset: 0; stroke-linejoin: miter; stroke-miterlimit: 4; fill: rgb(255,239,94); fill-rule: nonzero; opacity: 1;" transform=" translate(-12, -6.42)" d="M 12.674 1.439 C 12.4898 1.27092 12.2494 1.17773 12 1.17773 C 11.7506 1.17773 11.5102 1.27092 11.326 1.439 L 3.5 8.582 L 3.5 11.654 L 11.323 4.512 C 11.5072 4.34392 11.7476 4.25073 11.997 4.25073 C 12.2464 4.25073 12.4868 4.34392 12.671 4.512 L 20.5 11.66 L 20.5 8.587 L 12.674 1.439 Z" stroke-linecap="round" />
</g>
<g transform="matrix(1 0 0 1 -8.5 1.57)" >
<path style="stroke: rgb(25,25,25); stroke-width: 1; stroke-dasharray: none; stroke-linecap: round; stroke-dashoffset: 0; stroke-linejoin: round; stroke-miterlimit: 4; fill: none; fill-rule: nonzero; opacity: 1;" transform=" translate(-3.5, -13.57)" d="M 3.5 11.823 L 3.504 15.323" stroke-linecap="round" />
</g>
<g transform="matrix(1 0 0 1 0 -5.75)" >
<path style="stroke: rgb(25,25,25); stroke-width: 1; stroke-dasharray: none; stroke-linecap: round; stroke-dashoffset: 0; stroke-linejoin: round; stroke-miterlimit: 4; fill: none; fill-rule: nonzero; opacity: 1;" transform=" translate(-12, -6.25)" d="M 0.5 11.323 L 11.326 1.439 C 11.5102 1.27092 11.7506 1.17773 12 1.17773 C 12.2494 1.17773 12.4898 1.27092 12.674 1.439 L 23.5 11.323" stroke-linecap="round" />
</g>
<g transform="matrix(1 0 0 1 0 -4.68)" >
<path style="stroke: rgb(25,25,25); stroke-width: 1; stroke-dasharray: none; stroke-linecap: round; stroke-dashoffset: 0; stroke-linejoin: round; stroke-miterlimit: 4; fill: rgb(102,225,255); fill-rule: nonzero; opacity: 1;" transform=" translate(-12, -7.32)" d="M 13.004 5.823 L 11.004 5.823 C 10.7279 5.823 10.504 6.04686 10.504 6.323 L 10.504 8.323 C 10.504 8.59914 10.7279 8.823 11.004 8.823 L 13.004 8.823 C 13.2801 8.823 13.504 8.59914 13.504 8.323 L 13.504 6.323 C 13.504 6.04686 13.2801 5.823 13.004 5.823 Z" stroke-linecap="round" />
</g>
<g transform="matrix(1 0 0 1 8.5 1.57)" >
<path style="stroke: rgb(25,25,25); stroke-width: 1; stroke-dasharray: none; stroke-linecap: round; stroke-dashoffset: 0; stroke-linejoin: round; stroke-miterlimit: 4; fill: none; fill-rule: nonzero; opacity: 1;" transform=" translate(-20.5, -13.57)" d="M 20.504 11.823 L 20.504 15.323" stroke-linecap="round" />
</g>
</g>
</g>
</svg>