<svg id='Work_From_Home_Briefcase_24' width='24' height='24' viewBox='0 0 24 24' xmlns='http://www.w3.org/2000/svg' xmlns:xlink='http://www.w3.org/1999/xlink'><rect width='24' height='24' stroke='none' fill='#000000' opacity='0'/>


<g transform="matrix(0.83 0 0 0.83 12 12)" >
<g style="" >
<g transform="matrix(1 0 0 1 5.25 6.75)" >
<path style="stroke: rgb(0,0,0); stroke-width: 1; stroke-dasharray: none; stroke-linecap: round; stroke-dashoffset: 0; stroke-linejoin: round; stroke-miterlimit: 10; fill: none; fill-rule: nonzero; opacity: 1;" transform=" translate(-17.25, -18.75)" d="M 12.25 14.25 L 22.25 14.25 C 22.85 14.25 23.25 14.65 23.25 15.25 L 23.25 22.25 C 23.25 22.85 22.85 23.25 22.25 23.25 L 12.25 23.25 C 11.65 23.25 11.25 22.85 11.25 22.25 L 11.25 15.25 C 11.25 14.65 11.65 14.25 12.25 14.25 Z" stroke-linecap="round" />
</g>
<g transform="matrix(1 0 0 1 5.25 5.95)" >
<path style="stroke: rgb(0,0,0); stroke-width: 1; stroke-dasharray: none; stroke-linecap: round; stroke-dashoffset: 0; stroke-linejoin: round; stroke-miterlimit: 10; fill: none; fill-rule: nonzero; opacity: 1;" transform=" translate(-17.25, -17.95)" d="M 11.25 17.9501 L 23.25 17.9501" stroke-linecap="round" />
</g>
<g transform="matrix(1 0 0 1 5.25 6.95)" >
<path style="stroke: rgb(0,0,0); stroke-width: 1; stroke-dasharray: none; stroke-linecap: round; stroke-dashoffset: 0; stroke-linejoin: round; stroke-miterlimit: 10; fill: none; fill-rule: nonzero; opacity: 1;" transform=" translate(-17.25, -18.95)" d="M 17.25 17.9501 L 17.25 19.9501" stroke-linecap="round" />
</g>
<g transform="matrix(1 0 0 1 5.15 0.55)" >
<path style="stroke: rgb(0,0,0); stroke-width: 1; stroke-dasharray: none; stroke-linecap: round; stroke-dashoffset: 0; stroke-linejoin: round; stroke-miterlimit: 10; fill: none; fill-rule: nonzero; opacity: 1;" transform=" translate(-17.15, -12.55)" d="M 14.95 14.25 L 14.95 13.05 C 14.95 11.85 15.95 10.85 17.15 10.85 C 18.35 10.85 19.35 11.85 19.35 13.05 L 19.35 14.25" stroke-linecap="round" />
</g>
<g transform="matrix(1 0 0 1 -1.5 -7.36)" >
<path style="stroke: rgb(0,0,0); stroke-width: 1; stroke-dasharray: none; stroke-linecap: round; stroke-dashoffset: 0; stroke-linejoin: round; stroke-miterlimit: 10; fill: none; fill-rule: nonzero; opacity: 1;" transform=" translate(-10.5, -4.64)" d="M 20.25 8.52501 L 11.45 1.125 C 10.85 0.625 10.05 0.625 9.55002 1.125 L 0.749897 8.52501" stroke-linecap="round" />
</g>
<g transform="matrix(1 0 0 1 5 -9.73)" >
<path style="stroke: rgb(0,0,0); stroke-width: 1; stroke-dasharray: none; stroke-linecap: round; stroke-dashoffset: 0; stroke-linejoin: round; stroke-miterlimit: 10; fill: none; fill-rule: nonzero; opacity: 1;" transform=" translate(-17, -2.27)" d="M 15.75 1.0249 L 18.25 1.0249 L 18.25 3.5249" stroke-linecap="round" />
</g>
<g transform="matrix(1 0 0 1 -5.75 -0.86)" >
<path style="stroke: rgb(0,0,0); stroke-width: 1; stroke-dasharray: none; stroke-linecap: round; stroke-dashoffset: 0; stroke-linejoin: round; stroke-miterlimit: 10; fill: none; fill-rule: nonzero; opacity: 1;" transform=" translate(-6.25, -11.14)" d="M 8.25 16.7249 L 5.75 16.7249 C 4.95 16.7249 4.25 16.0249 4.25 15.2249 L 4.25 5.5625" stroke-linecap="round" />
</g>
</g>
</g>
</svg>